<?xml version="1.0" standalone="no"?><!DOCTYPE svg PUBLIC "-//W3C//DTD SVG 1.1//EN" "http://www.w3.org/Graphics/SVG/1.1/DTD/svg11.dtd"><svg t="1676951663266" class="icon" viewBox="0 0 1024 1024" version="1.1" xmlns="http://www.w3.org/2000/svg" p-id="6822" xmlns:xlink="http://www.w3.org/1999/xlink" width="50" height="50"><path d="M270.506667 234.666667a21.333333 21.333333 0 0 0 13.226666-4.693334 366.933333 366.933333 0 0 1 42.666667-30.293333 21.333333 21.333333 0 0 0-21.76-36.693333A410.453333 410.453333 0 0 0 256 196.693333a21.333333 21.333333 0 0 0 13.226667 37.973334zM384 544.426667a21.333333 21.333333 0 0 0 0 42.666666h106.666667v85.333334a21.333333 21.333333 0 0 0 42.666666 0v-85.333334H640a21.333333 21.333333 0 0 0 0-42.666666h-106.666667v-64H640a21.333333 21.333333 0 0 0 0-42.666667H384a21.333333 21.333333 0 0 0 0 42.666667h106.666667v64zM578.986667 411.733333l45.226666-45.226666a21.333333 21.333333 0 0 0-30.293333-30.293334l-44.8 45.226667a21.333333 21.333333 0 0 0 30.293333 30.293333zM474.88 411.733333a21.333333 21.333333 0 0 0 0-30.293333l-45.226667-45.226667a21.333333 21.333333 0 0 0-30.293333 30.293334l45.226667 45.226666a21.333333 21.333333 0 0 0 30.293333 0z" fill="#e6e6e6" p-id="6823"></path><path d="M917.333333 512A405.76 405.76 0 0 0 387.413333 128a21.333333 21.333333 0 0 0 13.226667 42.666667 363.093333 363.093333 0 0 1 474.026667 341.333333 363.093333 363.093333 0 0 1-2.56 42.666667 21.333333 21.333333 0 0 0 18.773333 23.466666h2.56a21.333333 21.333333 0 0 0 21.333333-18.773333A409.173333 409.173333 0 0 0 917.333333 512zM550.826667 872.533333a369.92 369.92 0 0 1-38.826667 2.133334A362.666667 362.666667 0 0 1 208.64 313.173333a21.333333 21.333333 0 0 0-35.84-23.466666A405.333333 405.333333 0 0 0 512 917.333333a410.453333 410.453333 0 0 0 42.666667-2.56 21.333333 21.333333 0 1 0-4.693334-42.666666zM620.373333 703.573333h249.173334a21.333333 21.333333 0 0 0 14.933333-36.266666l-57.173333-57.173334a21.333333 21.333333 0 0 0-30.293334 30.293334l20.906667 20.906666h-197.546667a21.333333 21.333333 0 0 0 0 42.666667zM869.546667 748.8h-249.173334a21.333333 21.333333 0 0 0-14.933333 36.266667l57.173333 57.173333a21.333333 21.333333 0 1 0 30.293334-30.293333l-20.906667-20.906667h197.973333a21.333333 21.333333 0 0 0 0-42.666667z" fill="#e6e6e6" p-id="6824"></path></svg>