<?xml version="1.0" standalone="no"?><!DOCTYPE svg PUBLIC "-//W3C//DTD SVG 1.1//EN" "http://www.w3.org/Graphics/SVG/1.1/DTD/svg11.dtd"><svg t="1676951468891" class="icon" viewBox="0 0 1024 1024" version="1.1" xmlns="http://www.w3.org/2000/svg" p-id="4920" xmlns:xlink="http://www.w3.org/1999/xlink" width="50" height="50"><path d="M1002.673702 514.834637c0.035817 270.344596-216.854884 487.803248-486.570129 487.833948-272.682916 0.035817-488.760066-217.064668-488.662849-490.975586 0.097217-267.939759 219.351821-484.359726 490.581602-484.231809C785.409484 27.589107 1002.632769 246.035277 1002.673702 514.834637zM45.451417 515.576555c-0.240484 257.859911 210.766042 470.887523 466.952801 471.429891 261.989067 0.552601 474.198011-208.939389 474.576645-468.503153 0.383751-260.704782-210.924659-473.174676-470.447489-473.041643C257.829211 45.589567 45.686784 257.297077 45.451417 515.576555z" p-id="4921" fill="#e6e6e6"></path><path d="M756.679358 259.47678c0 119.745525 0 237.843482 0 357.614591-12.894019 0-24.237686 0-36.671204 0-1.299635-9.476081-2.435537-17.749743-3.857972-28.085424-29.89161 0-59.967421 0-93.103003 0 0 57.475601 0 114.853985 0 174.033438-14.475071 0-25.967121 0-40.871993 0 0-57.516534 0-114.940968 0-174.197172-33.401649 0-63.513276 0-95.487373 0-0.828901 9.01558-1.652686 17.933943-2.609504 28.315675-12.602368 0-24.012552 0-37.228921 0 0-119.177575 0-237.244831 0-357.686224C549.131704 259.47678 651.552171 259.47678 756.679358 259.47678zM581.233718 546.859901c0-32.511348 0.496317-62.193174-0.491201-91.828951-0.163734-4.881307-6.636326-13.518253-10.484065-13.681987-27.681207-1.187068-55.439165-0.634468-83.156188-0.634468 0 37.684305 0 71.331554 0 106.145405C518.329326 546.859901 547.837186 546.859901 581.233718 546.859901zM581.208135 297.135502c-33.278849 0-63.236976 0-94.438455 0 0 35.402269 0 68.906251 0 105.423954 28.305441 0 55.295898 0.557717 82.209604-0.578184 4.241723-0.179084 11.527867-7.930845 11.681367-12.377235C581.699335 359.267276 581.208135 328.884465 581.208135 297.135502zM624.213781 295.349783c0 37.484755 0 71.065487 0 107.27619 28.054724 0 54.333963 0.711218 80.505751-0.670284 4.589657-0.240484 12.208385-9.056513 12.474452-14.219237 1.299635-25.511737 1.453135-51.176975-0.07675-76.658012-0.332584-5.510658-9.00023-14.689972-14.280638-15.017439C677.503942 294.474831 652.012672 295.349783 624.213781 295.349783zM623.835147 546.522201c32.04573 0 61.38474 0 93.875621 0 0-31.795013 0.614001-62.126658-0.634468-92.381552-0.194434-4.748274-8.672763-12.837735-13.635937-13.093569-26.008055-1.325219-52.118443-0.619118-79.6001-0.619118C623.835147 477.221966 623.835147 510.833398 623.835147 546.522201z" p-id="4922" fill="#e6e6e6"></path><path d="M417.924829 473.814261c1.048918 39.746325 1.345685 41.225044-35.330635 48.562354-23.055734 4.61524-30.024644 14.991855-29.011542 38.027122 1.913636 43.39963 0.665168 86.947644 0.521901 130.429141-0.158617 47.86137-14.157837 62.776475-61.451257 65.135262-13.421036 0.670284-26.898356 0.102333-41.332494 0.102333-2.235987-12.914486-4.24684-24.519103-6.96891-40.237526 15.293739 0 28.443592 0.2456 41.583211-0.0614 16.910608-0.393984 28.310558-8.437396 28.525458-26.059222 0.593534-48.413971 0.204667-96.843292 0.204667-148.629151-25.782921 6.262809-49.176355 11.942317-72.436756 17.591126-10.760366-40.304042-10.760366-40.304042 26.770439-49.171239 46.469635-10.980383 46.474751-10.980383 46.469635-58.176585 0-22.170549-0.598651-44.356448 0.158617-66.501414 0.516784-15.068605-4.405456-21.950532-20.471813-20.829981-16.010073 1.115435-32.15318 0.2456-49.928506 0.2456 0-12.515385 0-22.958517 0-36.118603 23.112017 0 44.893699 0 69.632819 0 0-36.40002 0-70.164953 0-105.843522 13.528486 0 24.094419 0 39.270474 0 0 25.542437 1.376385 51.683526-0.419567 77.604597-1.550352 22.405916 5.689742 31.733613 28.556158 28.627792 9.931465-1.350802 20.20063-0.225134 32.357847-0.225134 0 12.361885 0 22.789667 0 34.363584-6.145126 0.537251-11.957668 1.412202-17.780443 1.494069-47.012002 0.649818-42.483746-6.64656-42.673063 44.755549-0.086983 23.0148 0.2456 46.029601 0.603768 69.039284 0.035817 2.317853 1.560586 4.61524 3.346305 9.542597C377.687303 483.019158 397.238115 478.547184 417.924829 473.814261z" p-id="4923" fill="#e6e6e6"></path></svg>