<?xml version="1.0" standalone="no"?><!DOCTYPE svg PUBLIC "-//W3C//DTD SVG 1.1//EN" "http://www.w3.org/Graphics/SVG/1.1/DTD/svg11.dtd"><svg t="1676952033128" class="icon" viewBox="0 0 1251 1024" version="1.1" xmlns="http://www.w3.org/2000/svg" p-id="8321" xmlns:xlink="http://www.w3.org/1999/xlink" width="61.083984375" height="50"><path d="M1223.812765 472.990476l-168.671861-141.852814V82.008658a77.575758 77.575758 0 0 0-155.151515 0v119.245022L681.447397 17.953247a76.910823 76.910823 0 0 0-54.967965-17.731602h-1.77316a76.245887 76.245887 0 0 0-54.74632 17.731602L27.594584 472.990476a77.797403 77.797403 0 0 0-9.530736 109.270996 77.797403 77.797403 0 0 0 109.270995 9.530736L625.592852 173.769697 1124.072506 591.792208a77.797403 77.797403 0 0 0 108.384415-9.530736 78.019048 78.019048 0 0 0-8.644156-109.270996z" fill="#e6e6e6" p-id="8322"></path><path d="M168.560817 623.709091V935.341991a88.658009 88.658009 0 0 0 88.658009 88.658009h243.809524v-310.30303h243.809524v310.30303h243.809523a88.658009 88.658009 0 0 0 88.658009-88.658009V615.28658L622.933112 248.242424z" fill="#e6e6e6" p-id="8323"></path></svg>