<?xml version="1.0" standalone="no"?><!DOCTYPE svg PUBLIC "-//W3C//DTD SVG 1.1//EN" "http://www.w3.org/Graphics/SVG/1.1/DTD/svg11.dtd"><svg t="1676951565381" class="icon" viewBox="0 0 1024 1024" version="1.1" xmlns="http://www.w3.org/2000/svg" p-id="6165" xmlns:xlink="http://www.w3.org/1999/xlink" width="50" height="50"><path d="M785.056 170.016c33.92 0 61.44 27.52 61.44 61.44V598.08c0 33.92-27.52 61.44-61.44 61.44h-92.16v122.112c0 33.92-27.52 61.44-61.44 61.44h-245.76a61.44 61.44 0 0 1-61.44-61.44v-122.144h-92.16a61.44 61.44 0 0 1-61.44-61.44V231.488c0-33.92 27.52-61.44 61.44-61.44h552.96z m-148.16 270.144h-256.64v341.44a5.44 5.44 0 0 0 3.744 5.184l1.696 0.288h245.76a5.44 5.44 0 0 0 5.184-3.712l0.256-1.728v-341.44z m-167.744 90.752l39.424 39.264 39.456-39.264a30.72 30.72 0 0 1 43.36 0l4.384 4.352-58.24 57.984h47.616v30.592h-57.6v22.816h57.6v30.592h-57.6l0.032 19.968a18.432 18.432 0 1 1-36.864 0v-19.968h-56.512v-30.592h56.512v-22.816h-56.512v-30.592h45.408l-58.24-57.984 4.416-4.352a30.72 30.72 0 0 1 43.36 0z m315.904-304.896H232.096a5.44 5.44 0 0 0-5.152 3.744l-0.288 1.696V598.08a5.44 5.44 0 0 0 3.744 5.152l1.696 0.288h92.16v-163.36H268.96a6.144 6.144 0 0 1-6.144-6.112v-21.856c0-15.488 12.544-28 28-28h457.376c3.392 0 6.144 2.72 6.144 6.144v21.856a28 28 0 0 1-28 28h-33.44v163.296h92.16a5.44 5.44 0 0 0 5.184-3.712l0.256-1.696V231.456a5.44 5.44 0 0 0-3.712-5.12l-1.728-0.32zM410.272 291.2c3.392 0 6.144 2.752 6.144 6.144v21.856a28 28 0 0 1-28 28H299.68a6.144 6.144 0 0 1-6.144-6.144v-21.856c0-15.456 12.544-28 28-28h88.736z" fill="#e6e6e6" p-id="6166"></path></svg>