<?xml version="1.0" standalone="no"?><!DOCTYPE svg PUBLIC "-//W3C//DTD SVG 1.1//EN" "http://www.w3.org/Graphics/SVG/1.1/DTD/svg11.dtd"><svg t="1676951235126" class="icon" viewBox="0 0 1024 1024" version="1.1" xmlns="http://www.w3.org/2000/svg" p-id="4031" xmlns:xlink="http://www.w3.org/1999/xlink" width="50" height="50"><path d="M510.955102 62.693878a167.183673 167.183673 0 1 1-167.183673 167.183673 167.183673 167.183673 0 0 1 167.183673-167.183673m0-62.693878a229.877551 229.877551 0 1 0 229.877551 229.877551 229.877551 229.877551 0 0 0-229.877551-229.877551z" fill="#e6e6e6" p-id="4032"></path><path d="M922.853878 779.493878h-62.693878c0-164.675918-118.282449-298.840816-263.732245-298.840817h-161.959184c-146.285714 0-263.732245 133.955918-263.732244 298.840817h-62.693878c0-199.366531 146.285714-361.534694 326.635102-361.534694h161.959184c179.722449 0 326.217143 162.168163 326.217143 361.534694z" fill="#e6e6e6" p-id="4033"></path><path d="M512.20898 992.653061a31.346939 31.346939 0 0 1-31.346939-31.346939c0-45.557551-152.346122-118.073469-438.857143-135.836734a31.346939 31.346939 0 0 1 3.970612-62.693878c229.877551 14.210612 496.953469 74.814694 496.95347 198.530612a31.346939 31.346939 0 0 1-30.72 31.346939z" fill="#e6e6e6" p-id="4034"></path><path d="M512.20898 992.653061a31.346939 31.346939 0 0 1-31.346939-31.346939c0-123.715918 267.702857-184.11102 497.162449-198.530612a31.346939 31.346939 0 0 1 3.970612 62.693878c-285.884082 17.763265-438.857143 90.488163-438.857143 135.836734a31.346939 31.346939 0 0 1-30.928979 31.346939z" fill="#e6e6e6" p-id="4035"></path><path d="M971.964082 1024h-919.510204a31.346939 31.346939 0 0 1 0-62.693878h919.510204a31.346939 31.346939 0 0 1 0 62.693878z" fill="#e6e6e6" p-id="4036"></path></svg>