<?xml version="1.0" standalone="no"?><!DOCTYPE svg PUBLIC "-//W3C//DTD SVG 1.1//EN" "http://www.w3.org/Graphics/SVG/1.1/DTD/svg11.dtd"><svg t="1676950237337" class="icon" viewBox="0 0 1024 1024" version="1.1" xmlns="http://www.w3.org/2000/svg" p-id="2081" xmlns:xlink="http://www.w3.org/1999/xlink" width="50" height="50"><path d="M221.3888 460.8H216.064c-24.3712 0-45.8752 13.8752-53.6064 34.6624l-107.52 159.744a54.4768 54.4768 0 0 0-3.328 15.872 10.8544 10.8544 0 0 0-0.4096 3.1744v276.48a47.616 47.616 0 0 0 47.616 47.36h826.368c26.112 0 47.616-21.2992 47.616-47.36v-276.5824c-0.2048 0-0.2048-0.1024-0.2048-0.1024 0-6.2464-1.1264-12.6464-3.3792-18.8416l-107.6736-159.744C853.9136 474.6752 832.3072 460.8 807.8848 460.8h-5.5296c14.7968 34.9184 15.4624 71.68 1.536 97.28l72.448 84.3776h-96.3072a28.7744 28.7744 0 0 0-28.8256 28.8256v183.7056H272.5888v-183.6032a28.7744 28.7744 0 0 0-28.8256-28.8256H147.6608L220.16 558.1312c-14.0288-25.6-13.568-62.3616 1.2288-97.3312z" fill="#e6e6e6" p-id="2082"></path><path d="M287.1296 473.6512a71.68 71.68 0 0 0 0 101.1712l174.2848 174.2848a71.68 71.68 0 0 0 101.1712 0l174.2848-174.2848a71.68 71.68 0 0 0 0-101.1712 71.68 71.68 0 0 0-101.1712 0l-53.9648 54.016V120.9344a69.632 69.632 0 1 0-139.4688 0v406.7328L388.3008 473.6a71.68 71.68 0 0 0-101.1712 0z" fill="#e6e6e6" p-id="2083"></path></svg>