<?xml version="1.0" standalone="no"?><!DOCTYPE svg PUBLIC "-//W3C//DTD SVG 1.1//EN" "http://www.w3.org/Graphics/SVG/1.1/DTD/svg11.dtd"><svg t="1673929543254" class="icon" viewBox="0 0 1024 1024" version="1.1" xmlns="http://www.w3.org/2000/svg" p-id="2492" xmlns:xlink="http://www.w3.org/1999/xlink" width="200" height="200"><path d="M512 1024c-282.304 0-512-229.696-512-512s229.696-512 512-512 512 229.696 512 512-229.696 512-512 512zM512 64C264.96 64 64 264.96 64 512c0 246.976 200.96 448 448 448 246.976 0 448-201.024 448-448 0-247.04-201.024-448-448-448z" p-id="2493"></path><path d="M512 810.688a32 32 0 0 1-32-32V386.688L348.288 269.248a32 32 0 1 1 42.624-47.744L544 357.952v420.736a32 32 0 0 1-32 32z" p-id="2494"></path><path d="M512 404.288a32 32 0 0 1-21.312-55.872L633.088 221.44a32 32 0 1 1 42.624 47.744L533.312 396.16A32 32 0 0 1 512 404.288z" p-id="2495"></path><path d="M680.896 448H343.104a32 32 0 0 1 0-64h337.728a32 32 0 0 1 0.064 64zM680.896 608H343.104a32 32 0 0 1 0-64h337.728a32 32 0 0 1 0.064 64z" p-id="2496"></path></svg>