<?xml version="1.0" standalone="no"?><!DOCTYPE svg PUBLIC "-//W3C//DTD SVG 1.1//EN" "http://www.w3.org/Graphics/SVG/1.1/DTD/svg11.dtd"><svg t="1676950153810" class="icon" viewBox="0 0 1024 1024" version="1.1" xmlns="http://www.w3.org/2000/svg" p-id="1818" xmlns:xlink="http://www.w3.org/1999/xlink" width="50" height="50"><path d="M972.5952 670.208c0-6.2464-1.1264-12.6464-3.3792-18.7904l-107.6736-159.744c-7.6288-20.8384-29.2352-34.7136-53.6576-34.7136L665.6 460.8v76.8l125.44 1.6896 85.2992 99.328h-96.3072a28.7744 28.7744 0 0 0-28.8256 28.8256v183.7056H272.5888v-183.6032a28.7744 28.7744 0 0 0-28.8256-28.8256H147.6608l85.4016-99.4304H358.4V456.96H216.064c-24.3712 0-45.8752 13.8752-53.6064 34.7136l-107.52 159.744a54.4256 54.4256 0 0 0-3.328 15.8208 10.8544 10.8544 0 0 0-0.4096 3.1744v276.48a47.616 47.616 0 0 0 47.616 47.36h826.368c26.112 0 47.616-21.2992 47.616-47.36v-276.5824c-0.2048 0-0.2048-0.1024-0.2048-0.1024z" fill="#e6e6e6" p-id="1819"></path><path d="M287.1296 347.5456a71.68 71.68 0 0 1 0-101.1712l174.2848-174.2848a71.68 71.68 0 0 1 101.1712 0l174.2848 174.2848a71.68 71.68 0 0 1 0 101.1712 71.68 71.68 0 0 1-101.1712 0l-53.9648-54.016v406.7328a69.632 69.632 0 1 1-139.4688 0V293.5296L388.3008 347.5456a71.68 71.68 0 0 1-101.1712 0z" fill="#e6e6e6" p-id="1820"></path></svg>