<?xml version="1.0" standalone="no"?><!DOCTYPE svg PUBLIC "-//W3C//DTD SVG 1.1//EN" "http://www.w3.org/Graphics/SVG/1.1/DTD/svg11.dtd"><svg t="1676951193503" class="icon" viewBox="0 0 1024 1024" version="1.1" xmlns="http://www.w3.org/2000/svg" p-id="3903" xmlns:xlink="http://www.w3.org/1999/xlink" width="50" height="50"><path d="M78.605809 620.348548c25.493776 0 42.489627-16.995851 42.489627-42.489627V301.676349L257.062241 352.6639v135.966805c0 25.493776 16.995851 42.489627 46.738589 59.485478 12.746888 114.721992 106.224066 199.701245 216.697095 199.701244 110.473029 0 203.950207-89.228216 216.697096-199.701244 25.493776-12.746888 46.738589-33.991701 46.738589-59.485478V352.6639l186.954357-72.232365c16.995851-4.248963 25.493776-21.244813 25.493776-38.240664s-8.497925-33.991701-25.493776-38.240664L533.244813 4.248963c-12.746888-4.248963-25.493776-4.248963-33.991701 0L65.858921 203.950207c-21.244813 4.248963-29.742739 21.244813-29.742738 38.240664v335.66805c0 25.493776 16.995851 42.489627 42.489626 42.489627z m437.643154 42.489626c-55.236515 0-101.975104-38.240664-123.219917-89.228215 63.73444 12.746888 123.219917 12.746888 123.219917 12.746887s63.73444 0 123.219917-12.746887c-21.244813 50.987552-67.983402 89.228216-123.219917 89.228215z m178.456431-191.203319c-25.493776 12.746888-89.228216 29.742739-178.456431 29.742738s-152.962656-16.995851-178.456432-29.742738v-84.979253l161.460581 63.734439c4.248963 0 8.497925 4.248963 16.995851 4.248963s8.497925 0 16.99585-4.248963l161.460581-63.734439v84.979253z m-178.456431-378.157677l322.921161 144.464731-322.921161 123.219917-322.921162-123.219917 322.921162-144.464731zM996.381743 956.016598c-89.228216-127.46888-276.182573-208.19917-480.13278-208.199171S125.344398 828.547718 36.116183 956.016598c-12.746888 21.244813-8.497925 46.738589 8.497925 59.485477 21.244813 12.746888 46.738589 8.497925 59.485477-8.497926 72.232365-106.224066 233.692946-169.958506 412.149378-169.958506s339.917012 67.983402 412.149377 169.958506c8.497925 12.746888 21.244813 16.995851 33.991701 16.995851 8.497925 0 16.995851-4.248963 25.493776-8.497925 16.995851-12.746888 21.244813-42.489627 8.497926-59.485477z" fill="#e6e6e6" p-id="3904"></path></svg>