<?xml version="1.0" standalone="no"?><!DOCTYPE svg PUBLIC "-//W3C//DTD SVG 1.1//EN" "http://www.w3.org/Graphics/SVG/1.1/DTD/svg11.dtd"><svg t="1673246056281" class="icon" viewBox="0 0 1024 1024" version="1.1" xmlns="http://www.w3.org/2000/svg" p-id="10775" xmlns:xlink="http://www.w3.org/1999/xlink" width="200" height="200"><path d="M671.232 529.408v215.04H145.408V203.264h525.824v94.72l94.208-78.336v-111.104H51.2V838.656h714.24V450.56z" fill="#707070" p-id="10776"></path><path d="M400.384 677.376L278.528 428.032c-8.192-16.384-1.024-35.84 14.848-44.032l47.616-23.552c16.384-8.192 35.84-1.024 44.032 14.848l72.192 147.456L904.704 128c13.312-12.288 34.304-10.752 46.592 2.56l35.328 39.936c12.288 13.824 10.752 34.304-2.56 46.592l-532.48 470.528c-15.872 14.336-41.472 9.216-51.2-10.24z" fill="#707070" p-id="10777"></path></svg>